# xmcd CD database file
#
# Track frame offsets:
#	150
#	28046
#	40276
#	59039
#	71936
#	87196
#	101976
#	122498
#
# Disc length: 4523 seconds
#
# Revision: 0
# Processed by: cddbd v1.5.2PL0 Copyright (c) Steve Scherf et al.
# Submitted via: CDex 1.70beta2
#
DISCID=7411a908
DTITLE=Eric Bibb - Spirit I Am - Field Recordings
DYEAR=2008
DGENRE=Blues
TTITLE0=No More Cane On Brazos
TTITLE1=Stagolee
TTITLE2=Goodnight Irene
TTITLE3=Bourgeois Blues
TTITLE4=Hold On
TTITLE5=Water
TTITLE6=I Shall Not Be Moved
TTITLE7=video
EXTD=YEAR: 2008
EXTT0=
EXTT1=
EXTT2=
EXTT3=
EXTT4=
EXTT5=
EXTT6=
EXTT7=
PLAYORDER=
